<svg id="svg" version="1.1" xmlns="http://www.w3.org/2000/svg" xmlns:xlink="http://www.w3.org/1999/xlink" width="400" height="400" viewBox="0, 0, 400,400"><g id="svgg"><path id="path0" d="M192.000 67.645 C 182.979 68.834,180.948 69.201,174.000 70.894 C 163.602 73.428,152.477 77.806,143.900 82.737 C 143.075 83.212,141.761 83.962,140.981 84.404 C 122.579 94.828,103.589 116.516,107.983 122.090 C 111.021 125.943,118.043 124.571,133.000 117.203 C 154.334 106.693,164.729 103.110,179.400 101.211 C 187.531 100.159,189.793 100.001,196.564 100.008 C 237.662 100.052,254.543 117.201,248.726 153.000 C 247.531 160.359,243.280 169.610,239.470 173.146 L 238.450 174.092 234.925 173.468 C 223.839 171.506,208.472 172.709,201.095 176.118 C 187.724 182.296,189.432 197.831,204.000 202.532 C 211.464 204.940,225.625 205.758,233.663 204.246 C 238.141 203.403,237.979 203.346,240.899 206.800 C 247.690 214.831,250.707 222.496,252.868 237.200 C 253.571 241.985,253.569 260.703,252.866 263.600 C 248.916 279.865,239.936 289.776,223.400 296.121 C 218.980 297.817,217.632 298.187,210.600 299.629 C 207.432 300.278,192.341 300.287,188.400 299.642 C 182.848 298.733,181.014 298.406,177.800 297.754 C 172.365 296.652,171.489 296.456,168.600 295.698 L 165.800 294.962 165.812 290.981 C 165.818 288.792,166.049 283.760,166.324 279.800 C 167.427 263.956,168.378 249.394,168.622 244.600 C 168.978 237.597,169.405 235.175,173.777 215.351 C 176.340 203.731,178.216 194.871,179.610 187.800 C 180.551 183.031,180.906 181.219,181.235 179.500 C 181.436 178.455,181.764 176.745,181.965 175.700 C 185.838 155.513,186.386 150.964,186.672 136.646 C 187.008 119.805,186.053 117.051,180.132 117.791 C 165.386 119.634,148.549 145.973,136.785 185.600 C 136.295 187.250,135.652 189.361,135.355 190.290 C 135.059 191.220,134.436 193.380,133.972 195.090 C 133.508 196.801,132.978 198.740,132.794 199.400 C 132.123 201.811,129.164 213.445,128.826 215.000 C 128.635 215.880,127.749 219.930,126.857 224.000 C 122.931 241.906,120.400 262.080,120.400 275.460 L 120.400 280.505 118.900 280.261 C 118.075 280.127,116.680 279.851,115.800 279.649 C 114.013 279.238,110.723 278.517,108.000 277.939 C 93.583 274.883,89.282 276.285,89.715 283.902 C 90.269 293.641,106.306 307.854,125.200 315.351 C 126.190 315.744,127.630 316.339,128.400 316.674 C 130.315 317.505,131.038 317.790,133.700 318.761 C 134.965 319.222,136.945 319.951,138.100 320.380 C 146.695 323.575,162.751 328.028,172.600 329.949 C 176.981 330.804,181.485 331.524,188.400 332.477 C 193.465 333.174,219.556 333.177,224.600 332.481 C 238.274 330.592,243.743 329.521,251.600 327.189 C 288.176 316.337,310.783 290.586,310.798 259.758 C 310.813 227.427,301.257 209.626,274.705 192.529 C 272.123 190.866,270.107 189.350,270.225 189.159 C 270.343 188.968,271.703 188.074,273.248 187.172 C 282.165 181.964,292.149 172.459,295.972 165.536 C 298.078 161.722,299.980 157.767,299.990 157.180 C 299.995 156.839,300.143 156.389,300.318 156.180 C 302.544 153.524,304.403 138.908,303.641 130.061 C 303.164 124.533,302.959 123.181,301.927 118.800 C 296.117 94.139,275.087 76.819,243.200 70.432 C 235.766 68.943,234.735 68.798,223.132 67.600 C 218.522 67.123,195.702 67.157,192.000 67.645 " stroke="none" fill="#ffffff" fill-rule="evenodd"></path><path id="path1" d="M178.800 0.452 C 176.710 0.648,173.650 0.911,172.000 1.035 C 170.350 1.159,168.829 1.427,168.620 1.630 C 168.411 1.834,167.376 2.000,166.320 2.000 C 165.264 2.000,164.400 2.180,164.400 2.400 C 164.400 2.620,163.410 2.800,162.200 2.800 C 160.990 2.800,160.000 2.980,160.000 3.200 C 160.000 3.420,159.280 3.600,158.400 3.600 C 157.520 3.600,156.800 3.780,156.800 4.000 C 156.800 4.220,156.091 4.400,155.224 4.400 C 154.357 4.400,153.536 4.580,153.400 4.800 C 153.264 5.020,152.353 5.200,151.376 5.200 C 150.399 5.200,149.600 5.360,149.600 5.556 C 149.600 5.752,148.970 6.022,148.200 6.156 C 147.430 6.290,146.170 6.510,145.400 6.644 C 144.630 6.778,144.000 7.048,144.000 7.244 C 144.000 7.440,143.370 7.600,142.600 7.600 C 141.830 7.600,141.200 7.780,141.200 8.000 C 141.200 8.220,140.756 8.400,140.214 8.400 C 139.166 8.400,135.864 9.367,134.705 10.013 C 134.323 10.226,133.659 10.400,133.229 10.400 C 132.799 10.400,132.336 10.580,132.200 10.800 C 132.064 11.020,131.601 11.200,131.171 11.200 C 130.741 11.200,130.032 11.380,129.595 11.600 C 129.158 11.820,128.442 12.180,128.005 12.400 C 127.568 12.620,126.938 12.800,126.605 12.800 C 126.272 12.800,126.000 12.980,126.000 13.200 C 126.000 13.420,125.550 13.600,125.000 13.600 C 124.450 13.600,124.000 13.780,124.000 14.000 C 124.000 14.220,123.550 14.400,123.000 14.400 C 122.450 14.400,122.000 14.580,122.000 14.800 C 122.000 15.020,121.550 15.200,121.000 15.200 C 120.450 15.200,120.000 15.380,120.000 15.600 C 120.000 15.820,119.640 16.000,119.200 16.000 C 118.760 16.000,118.400 16.180,118.400 16.400 C 118.400 16.620,118.040 16.800,117.600 16.800 C 117.160 16.800,116.800 16.980,116.800 17.200 C 116.800 17.420,116.465 17.600,116.056 17.600 C 115.254 17.600,110.287 20.005,110.067 20.500 C 109.993 20.665,109.588 20.800,109.167 20.800 C 108.745 20.800,108.400 20.980,108.400 21.200 C 108.400 21.420,108.040 21.600,107.600 21.600 C 107.160 21.600,106.800 21.780,106.800 22.000 C 106.800 22.220,106.429 22.400,105.976 22.400 C 105.523 22.400,105.264 22.580,105.400 22.800 C 105.541 23.028,105.196 23.200,104.600 23.200 C 104.004 23.200,103.659 23.372,103.800 23.600 C 103.936 23.820,103.767 24.000,103.424 24.000 C 103.081 24.000,102.800 24.180,102.800 24.400 C 102.800 24.620,102.536 24.800,102.214 24.800 C 101.401 24.800,98.800 26.076,98.800 26.474 C 98.800 26.653,98.440 26.800,98.000 26.800 C 97.560 26.800,97.200 26.980,97.200 27.200 C 97.200 27.420,96.964 27.600,96.675 27.600 C 96.387 27.600,95.802 27.915,95.375 28.300 C 94.949 28.685,94.105 29.255,93.500 29.568 C 92.895 29.880,92.400 30.285,92.400 30.468 C 92.400 30.650,92.130 30.800,91.800 30.800 C 91.470 30.800,91.200 30.980,91.200 31.200 C 91.200 31.420,90.880 31.600,90.488 31.600 C 90.097 31.600,89.517 31.960,89.200 32.400 C 88.883 32.840,88.343 33.200,88.000 33.200 C 87.657 33.200,87.117 33.560,86.800 34.000 C 86.483 34.440,85.943 34.800,85.600 34.800 C 85.257 34.800,84.717 35.160,84.400 35.600 C 84.083 36.040,83.620 36.400,83.371 36.400 C 83.122 36.400,82.354 36.940,81.663 37.600 C 80.972 38.260,80.208 38.800,79.964 38.800 C 79.720 38.800,79.017 39.340,78.400 40.000 C 77.783 40.660,77.164 41.200,77.023 41.200 C 76.752 41.200,76.352 41.514,74.349 43.300 C 73.671 43.905,72.958 44.400,72.766 44.400 C 72.574 44.400,71.427 45.390,70.217 46.600 C 69.007 47.810,67.843 48.800,67.629 48.800 C 67.416 48.800,65.297 50.770,62.921 53.179 C 57.684 58.486,58.486 57.684,53.179 62.921 C 50.770 65.297,48.800 67.416,48.800 67.629 C 48.800 67.843,47.810 69.007,46.600 70.217 C 45.390 71.427,44.400 72.574,44.400 72.766 C 44.400 72.958,43.859 73.719,43.199 74.458 C 41.469 76.390,41.200 76.736,41.200 77.023 C 41.200 77.164,40.660 77.783,40.000 78.400 C 39.340 79.017,38.800 79.720,38.800 79.964 C 38.800 80.208,38.260 80.972,37.600 81.663 C 36.940 82.354,36.400 83.122,36.400 83.371 C 36.400 83.620,36.040 84.083,35.600 84.400 C 35.160 84.717,34.800 85.257,34.800 85.600 C 34.800 85.943,34.440 86.483,34.000 86.800 C 33.560 87.117,33.200 87.657,33.200 88.000 C 33.200 88.343,32.840 88.883,32.400 89.200 C 31.960 89.517,31.600 90.031,31.600 90.341 C 31.600 90.652,31.284 91.197,30.897 91.553 C 30.511 91.909,29.926 92.740,29.597 93.400 C 29.269 94.060,28.685 94.949,28.300 95.375 C 27.915 95.802,27.600 96.387,27.600 96.675 C 27.600 96.964,27.420 97.200,27.200 97.200 C 26.980 97.200,26.800 97.560,26.800 98.000 C 26.800 98.440,26.653 98.800,26.474 98.800 C 26.076 98.800,24.800 101.401,24.800 102.214 C 24.800 102.536,24.620 102.800,24.400 102.800 C 24.180 102.800,24.000 103.081,24.000 103.424 C 24.000 103.767,23.820 103.936,23.600 103.800 C 23.372 103.659,23.200 104.004,23.200 104.600 C 23.200 105.196,23.028 105.541,22.800 105.400 C 22.580 105.264,22.400 105.523,22.400 105.976 C 22.400 106.429,22.220 106.800,22.000 106.800 C 21.780 106.800,21.600 107.072,21.600 107.405 C 21.600 107.963,20.874 109.529,20.398 110.000 C 19.846 110.544,17.600 115.408,17.600 116.056 C 17.600 116.465,17.420 116.800,17.200 116.800 C 16.980 116.800,16.800 117.160,16.800 117.600 C 16.800 118.040,16.620 118.400,16.400 118.400 C 16.180 118.400,16.000 118.760,16.000 119.200 C 16.000 119.640,15.820 120.000,15.600 120.000 C 15.380 120.000,15.200 120.450,15.200 121.000 C 15.200 121.550,15.020 122.000,14.800 122.000 C 14.580 122.000,14.400 122.450,14.400 123.000 C 14.400 123.550,14.220 124.000,14.000 124.000 C 13.780 124.000,13.600 124.450,13.600 125.000 C 13.600 125.550,13.420 126.000,13.200 126.000 C 12.980 126.000,12.800 126.272,12.800 126.605 C 12.800 126.938,12.641 127.523,12.447 127.905 C 11.165 130.426,8.400 138.829,8.400 140.206 C 8.400 140.753,8.220 141.200,8.000 141.200 C 7.780 141.200,7.600 141.830,7.600 142.600 C 7.600 143.370,7.440 144.000,7.244 144.000 C 6.907 144.000,6.790 144.449,6.168 148.100 C 6.027 148.925,5.752 149.600,5.556 149.600 C 5.360 149.600,5.200 150.399,5.200 151.376 C 5.200 152.353,5.020 153.264,4.800 153.400 C 4.580 153.536,4.400 154.357,4.400 155.224 C 4.400 156.091,4.220 156.800,4.000 156.800 C 3.780 156.800,3.600 157.520,3.600 158.400 C 3.600 159.280,3.420 160.000,3.200 160.000 C 2.980 160.000,2.800 160.990,2.800 162.200 C 2.800 163.410,2.620 164.400,2.400 164.400 C 2.178 164.400,2.000 165.467,2.000 166.800 C 2.000 168.133,1.822 169.200,1.600 169.200 C 1.367 169.200,1.200 170.522,1.200 172.367 C 1.200 174.482,1.040 175.587,0.718 175.694 C 0.044 175.919,-0.224 212.573,0.395 219.800 C 0.641 222.660,0.936 226.305,1.052 227.900 C 1.168 229.495,1.429 230.800,1.632 230.800 C 1.834 230.800,2.000 231.880,2.000 233.200 C 2.000 234.533,2.178 235.600,2.400 235.600 C 2.620 235.600,2.800 236.590,2.800 237.800 C 2.800 239.010,2.980 240.000,3.200 240.000 C 3.420 240.000,3.600 240.720,3.600 241.600 C 3.600 242.480,3.780 243.200,4.000 243.200 C 4.220 243.200,4.400 243.909,4.400 244.776 C 4.400 245.643,4.561 246.452,4.758 246.574 C 4.955 246.695,5.210 247.471,5.325 248.297 C 5.440 249.124,5.743 250.610,5.996 251.600 C 6.250 252.590,6.554 253.985,6.673 254.700 C 6.791 255.415,7.048 256.000,7.244 256.000 C 7.440 256.000,7.600 256.630,7.600 257.400 C 7.600 258.170,7.780 258.800,8.000 258.800 C 8.220 258.800,8.400 259.246,8.400 259.792 C 8.400 260.821,10.124 266.478,10.809 267.695 C 11.024 268.077,11.200 268.664,11.200 269.000 C 11.200 269.336,11.380 269.968,11.600 270.405 C 11.820 270.842,12.180 271.558,12.400 271.995 C 12.620 272.432,12.800 273.062,12.800 273.395 C 12.800 273.728,12.980 274.000,13.200 274.000 C 13.420 274.000,13.600 274.450,13.600 275.000 C 13.600 275.550,13.780 276.000,14.000 276.000 C 14.220 276.000,14.400 276.450,14.400 277.000 C 14.400 277.550,14.580 278.000,14.800 278.000 C 15.020 278.000,15.200 278.450,15.200 279.000 C 15.200 279.550,15.380 280.000,15.600 280.000 C 15.820 280.000,16.000 280.360,16.000 280.800 C 16.000 281.240,16.180 281.600,16.400 281.600 C 16.620 281.600,16.800 281.960,16.800 282.400 C 16.800 282.840,16.980 283.200,17.200 283.200 C 17.420 283.200,17.600 283.535,17.600 283.944 C 17.600 284.746,20.005 289.713,20.500 289.933 C 20.665 290.007,20.800 290.412,20.800 290.833 C 20.800 291.255,20.980 291.600,21.200 291.600 C 21.420 291.600,21.600 291.960,21.600 292.400 C 21.600 292.840,21.780 293.200,22.000 293.200 C 22.220 293.200,22.400 293.571,22.400 294.024 C 22.400 294.477,22.580 294.736,22.800 294.600 C 23.028 294.459,23.200 294.804,23.200 295.400 C 23.200 295.996,23.372 296.341,23.600 296.200 C 23.820 296.064,24.000 296.233,24.000 296.576 C 24.000 296.919,24.180 297.200,24.400 297.200 C 24.620 297.200,24.800 297.464,24.800 297.786 C 24.800 298.599,26.076 301.200,26.474 301.200 C 26.653 301.200,26.800 301.560,26.800 302.000 C 26.800 302.440,26.980 302.800,27.200 302.800 C 27.420 302.800,27.600 303.036,27.600 303.325 C 27.600 303.613,27.915 304.198,28.300 304.625 C 28.685 305.051,29.255 305.895,29.568 306.500 C 29.880 307.105,30.285 307.600,30.468 307.600 C 30.650 307.600,30.800 307.870,30.800 308.200 C 30.800 308.530,30.980 308.800,31.200 308.800 C 31.420 308.800,31.600 309.120,31.600 309.512 C 31.600 309.903,31.960 310.483,32.400 310.800 C 32.840 311.117,33.200 311.657,33.200 312.000 C 33.200 312.343,33.560 312.883,34.000 313.200 C 34.440 313.517,34.800 314.025,34.800 314.328 C 34.800 314.631,35.340 315.383,36.000 316.000 C 36.660 316.617,37.200 317.369,37.200 317.672 C 37.200 317.975,37.560 318.483,38.000 318.800 C 38.440 319.117,38.800 319.569,38.800 319.804 C 38.800 320.040,39.520 321.028,40.400 322.000 C 41.280 322.972,42.000 323.891,42.000 324.042 C 42.000 324.192,42.540 324.893,43.200 325.600 C 43.860 326.307,44.400 327.042,44.400 327.234 C 44.400 327.426,45.390 328.573,46.600 329.783 C 47.810 330.993,48.800 332.157,48.800 332.371 C 48.800 332.584,50.770 334.703,53.179 337.079 C 58.486 342.316,57.684 341.514,62.921 346.821 C 65.297 349.230,67.416 351.200,67.629 351.200 C 67.843 351.200,69.007 352.190,70.217 353.400 C 71.427 354.610,72.574 355.600,72.766 355.600 C 72.958 355.600,73.693 356.140,74.400 356.800 C 75.107 357.460,75.824 358.000,75.994 358.000 C 76.164 358.000,77.045 358.720,77.952 359.600 C 78.859 360.480,79.831 361.200,80.112 361.200 C 80.393 361.200,80.883 361.560,81.200 362.000 C 81.517 362.440,82.025 362.800,82.328 362.800 C 82.631 362.800,83.383 363.340,84.000 364.000 C 84.617 364.660,85.369 365.200,85.672 365.200 C 85.975 365.200,86.483 365.560,86.800 366.000 C 87.117 366.440,87.657 366.800,88.000 366.800 C 88.343 366.800,88.883 367.160,89.200 367.600 C 89.517 368.040,90.031 368.400,90.341 368.400 C 90.652 368.400,91.197 368.716,91.553 369.103 C 91.909 369.489,92.740 370.074,93.400 370.403 C 94.060 370.731,94.949 371.315,95.375 371.700 C 95.802 372.085,96.387 372.400,96.675 372.400 C 96.964 372.400,97.200 372.580,97.200 372.800 C 97.200 373.020,97.560 373.200,98.000 373.200 C 98.440 373.200,98.800 373.347,98.800 373.526 C 98.800 373.924,101.401 375.200,102.214 375.200 C 102.536 375.200,102.800 375.380,102.800 375.600 C 102.800 375.820,103.160 376.000,103.600 376.000 C 104.040 376.000,104.400 376.180,104.400 376.400 C 104.400 376.620,104.678 376.800,105.017 376.800 C 105.356 376.800,106.020 377.160,106.492 377.600 C 106.964 378.040,107.587 378.400,107.875 378.400 C 108.164 378.400,108.400 378.580,108.400 378.800 C 108.400 379.020,108.745 379.200,109.167 379.200 C 109.588 379.200,109.993 379.335,110.067 379.500 C 110.288 379.999,113.622 381.600,114.438 381.600 C 114.857 381.600,115.200 381.780,115.200 382.000 C 115.200 382.220,115.560 382.400,116.000 382.400 C 116.440 382.400,116.800 382.580,116.800 382.800 C 116.800 383.020,117.160 383.200,117.600 383.200 C 118.040 383.200,118.400 383.380,118.400 383.600 C 118.400 383.820,118.760 384.000,119.200 384.000 C 119.640 384.000,120.000 384.180,120.000 384.400 C 120.000 384.620,120.360 384.800,120.800 384.800 C 121.240 384.800,121.600 384.941,121.600 385.113 C 121.600 385.285,122.095 385.466,122.700 385.516 C 123.305 385.566,123.860 385.785,123.933 386.003 C 124.007 386.222,124.406 386.400,124.821 386.400 C 125.236 386.400,126.217 386.760,127.000 387.200 C 127.783 387.640,128.779 388.000,129.212 388.000 C 129.645 388.000,130.000 388.180,130.000 388.400 C 130.000 388.620,130.349 388.800,130.776 388.800 C 131.203 388.800,131.664 388.980,131.800 389.200 C 131.936 389.420,132.399 389.600,132.829 389.600 C 133.259 389.600,133.923 389.763,134.305 389.963 C 135.623 390.652,139.296 391.600,140.646 391.600 C 141.391 391.600,142.000 391.780,142.000 392.000 C 142.000 392.220,142.450 392.400,143.000 392.400 C 143.550 392.400,144.000 392.580,144.000 392.800 C 144.000 393.020,144.720 393.200,145.600 393.200 C 146.480 393.200,147.200 393.380,147.200 393.600 C 147.200 393.820,147.740 394.000,148.400 394.000 C 149.060 394.000,149.600 394.180,149.600 394.400 C 149.600 394.620,150.500 394.800,151.600 394.800 C 152.700 394.800,153.600 394.980,153.600 395.200 C 153.600 395.420,154.320 395.600,155.200 395.600 C 156.080 395.600,156.800 395.780,156.800 396.000 C 156.800 396.220,157.520 396.400,158.400 396.400 C 159.280 396.400,160.000 396.580,160.000 396.800 C 160.000 397.020,160.990 397.200,162.200 397.200 C 163.410 397.200,164.400 397.380,164.400 397.600 C 164.400 397.822,165.467 398.000,166.800 398.000 C 168.133 398.000,169.200 398.178,169.200 398.400 C 169.200 398.628,170.389 398.800,171.967 398.800 C 173.824 398.800,174.788 398.964,174.900 399.300 C 175.144 400.032,224.856 400.032,225.100 399.300 C 225.213 398.960,226.211 398.800,228.210 398.800 C 229.828 398.800,231.264 398.620,231.400 398.400 C 231.536 398.180,232.537 398.000,233.624 398.000 C 234.711 398.000,235.600 397.820,235.600 397.600 C 235.600 397.380,236.464 397.200,237.520 397.200 C 238.576 397.200,239.611 397.030,239.820 396.822 C 240.029 396.615,241.045 396.402,242.078 396.349 C 243.111 396.296,243.865 396.106,243.755 395.926 C 243.644 395.747,244.183 395.600,244.953 395.600 C 245.723 395.600,246.464 395.420,246.600 395.200 C 246.736 394.980,247.647 394.800,248.624 394.800 C 249.601 394.800,250.400 394.640,250.400 394.444 C 250.400 394.248,251.030 393.978,251.800 393.844 C 252.570 393.710,253.830 393.490,254.600 393.356 C 255.370 393.222,256.000 392.952,256.000 392.756 C 256.000 392.560,256.630 392.400,257.400 392.400 C 258.170 392.400,258.800 392.220,258.800 392.000 C 258.800 391.780,259.238 391.600,259.772 391.600 C 260.886 391.600,266.578 389.859,269.096 388.748 C 270.028 388.337,271.053 388.000,271.372 388.000 C 271.691 388.000,272.064 387.820,272.200 387.600 C 272.336 387.380,272.797 387.200,273.224 387.200 C 273.651 387.200,274.000 387.020,274.000 386.800 C 274.000 386.580,274.450 386.400,275.000 386.400 C 275.550 386.400,276.000 386.220,276.000 386.000 C 276.000 385.780,276.540 385.600,277.200 385.600 C 277.860 385.600,278.400 385.420,278.400 385.200 C 278.400 384.980,278.760 384.800,279.200 384.800 C 279.640 384.800,280.000 384.620,280.000 384.400 C 280.000 384.180,280.360 384.000,280.800 384.000 C 281.240 384.000,281.600 383.820,281.600 383.600 C 281.600 383.380,281.960 383.200,282.400 383.200 C 282.840 383.200,283.200 383.020,283.200 382.800 C 283.200 382.580,283.535 382.400,283.944 382.400 C 284.746 382.400,289.713 379.995,289.933 379.500 C 290.007 379.335,290.412 379.200,290.833 379.200 C 291.255 379.200,291.600 379.020,291.600 378.800 C 291.600 378.580,291.960 378.400,292.400 378.400 C 292.840 378.400,293.201 378.265,293.203 378.100 C 293.207 377.735,295.149 376.800,295.903 376.800 C 296.202 376.800,296.336 376.620,296.200 376.400 C 296.064 376.180,296.233 376.000,296.576 376.000 C 296.919 376.000,297.200 375.820,297.200 375.600 C 297.200 375.380,297.464 375.200,297.786 375.200 C 298.599 375.200,301.200 373.924,301.200 373.526 C 301.200 373.347,301.560 373.200,302.000 373.200 C 302.440 373.200,302.800 373.020,302.800 372.800 C 302.800 372.580,303.036 372.400,303.325 372.400 C 303.613 372.400,304.198 372.085,304.625 371.700 C 305.051 371.315,305.940 370.731,306.600 370.403 C 307.260 370.074,308.091 369.489,308.447 369.103 C 308.803 368.716,309.348 368.400,309.659 368.400 C 309.969 368.400,310.483 368.040,310.800 367.600 C 311.117 367.160,311.657 366.800,312.000 366.800 C 312.343 366.800,312.883 366.440,313.200 366.000 C 313.517 365.560,314.057 365.200,314.400 365.200 C 314.743 365.200,315.283 364.840,315.600 364.400 C 315.917 363.960,316.380 363.600,316.629 363.600 C 316.878 363.600,317.646 363.060,318.337 362.400 C 319.028 361.740,319.792 361.200,320.036 361.200 C 320.280 361.200,320.983 360.660,321.600 360.000 C 322.217 359.340,322.836 358.800,322.977 358.800 C 323.260 358.800,323.937 358.269,325.401 356.900 C 325.930 356.405,326.534 356.000,326.741 356.000 C 326.949 356.000,328.038 355.100,329.161 354.000 C 330.285 352.900,331.377 352.000,331.588 352.000 C 331.799 352.000,332.165 351.640,332.400 351.200 C 332.635 350.760,333.008 350.400,333.228 350.400 C 333.448 350.400,335.427 348.555,337.627 346.300 C 342.434 341.372,341.372 342.434,346.300 337.627 C 348.555 335.427,350.400 333.448,350.400 333.228 C 350.400 333.008,350.760 332.635,351.200 332.400 C 351.640 332.165,352.000 331.799,352.000 331.588 C 352.000 331.377,352.900 330.285,354.000 329.161 C 355.100 328.038,356.000 326.949,356.000 326.741 C 356.000 326.534,356.405 325.930,356.900 325.401 C 358.269 323.937,358.800 323.260,358.800 322.977 C 358.800 322.836,359.340 322.217,360.000 321.600 C 360.660 320.983,361.200 320.280,361.200 320.036 C 361.200 319.792,361.740 319.028,362.400 318.337 C 363.060 317.646,363.600 316.878,363.600 316.629 C 363.600 316.380,363.960 315.917,364.400 315.600 C 364.840 315.283,365.200 314.743,365.200 314.400 C 365.200 314.057,365.560 313.517,366.000 313.200 C 366.440 312.883,366.800 312.343,366.800 312.000 C 366.800 311.657,367.160 311.117,367.600 310.800 C 368.040 310.483,368.400 309.969,368.400 309.659 C 368.400 309.348,368.716 308.803,369.103 308.447 C 369.489 308.091,370.074 307.260,370.403 306.600 C 370.731 305.940,371.315 305.051,371.700 304.625 C 372.085 304.198,372.400 303.613,372.400 303.325 C 372.400 303.036,372.580 302.800,372.800 302.800 C 373.020 302.800,373.200 302.440,373.200 302.000 C 373.200 301.560,373.347 301.200,373.526 301.200 C 373.924 301.200,375.200 298.599,375.200 297.786 C 375.200 297.464,375.380 297.200,375.600 297.200 C 375.820 297.200,376.000 296.919,376.000 296.576 C 376.000 296.233,376.180 296.064,376.400 296.200 C 376.620 296.336,376.800 296.202,376.800 295.903 C 376.800 295.149,377.735 293.207,378.100 293.203 C 378.265 293.201,378.400 292.840,378.400 292.400 C 378.400 291.960,378.535 291.599,378.700 291.599 C 378.865 291.598,379.450 290.608,380.000 289.400 C 380.550 288.192,381.135 287.202,381.300 287.201 C 381.465 287.201,381.600 286.851,381.600 286.424 C 381.600 285.997,381.780 285.536,382.000 285.400 C 382.220 285.264,382.400 284.713,382.400 284.176 C 382.400 283.639,382.580 283.200,382.800 283.200 C 383.020 283.200,383.200 282.840,383.200 282.400 C 383.200 281.960,383.380 281.600,383.600 281.600 C 383.820 281.600,384.000 281.240,384.000 280.800 C 384.000 280.360,384.180 280.000,384.400 280.000 C 384.620 280.000,384.800 279.640,384.800 279.200 C 384.800 278.760,384.941 278.400,385.113 278.400 C 385.285 278.400,385.466 277.905,385.516 277.300 C 385.566 276.695,385.785 276.140,386.003 276.067 C 386.222 275.993,386.400 275.588,386.400 275.167 C 386.400 274.745,386.591 274.400,386.824 274.400 C 387.057 274.400,387.159 274.258,387.052 274.084 C 386.944 273.910,387.133 273.145,387.472 272.384 C 387.810 271.623,388.268 270.550,388.490 270.000 C 388.712 269.450,389.052 268.687,389.247 268.305 C 389.441 267.923,389.600 267.336,389.600 267.000 C 389.600 266.664,389.763 266.077,389.963 265.695 C 390.560 264.553,391.600 260.778,391.600 259.754 C 391.600 259.229,391.780 258.800,392.000 258.800 C 392.220 258.800,392.400 258.170,392.400 257.400 C 392.400 256.630,392.580 256.000,392.800 256.000 C 393.020 256.000,393.200 255.370,393.200 254.600 C 393.200 253.830,393.380 253.200,393.600 253.200 C 393.820 253.200,394.000 252.570,394.000 251.800 C 394.000 251.030,394.180 250.400,394.400 250.400 C 394.620 250.400,394.800 249.680,394.800 248.800 C 394.800 247.920,394.980 247.200,395.200 247.200 C 395.420 247.200,395.600 246.300,395.600 245.200 C 395.600 244.100,395.780 243.200,396.000 243.200 C 396.220 243.200,396.400 242.491,396.400 241.624 C 396.400 240.757,396.580 239.936,396.800 239.800 C 397.020 239.664,397.200 238.663,397.200 237.576 C 397.200 236.489,397.380 235.600,397.600 235.600 C 397.820 235.600,398.000 234.711,398.000 233.624 C 398.000 232.537,398.180 231.536,398.400 231.400 C 398.620 231.264,398.800 229.828,398.800 228.210 C 398.800 226.302,398.966 225.211,399.273 225.109 C 399.941 224.886,400.220 187.336,399.606 180.200 C 399.360 177.340,399.064 173.695,398.948 172.100 C 398.832 170.505,398.571 169.200,398.368 169.200 C 398.166 169.200,398.000 168.120,398.000 166.800 C 398.000 165.467,397.822 164.400,397.600 164.400 C 397.380 164.400,397.200 163.410,397.200 162.200 C 397.200 160.990,397.020 160.000,396.800 160.000 C 396.580 160.000,396.400 159.280,396.400 158.400 C 396.400 157.520,396.220 156.800,396.000 156.800 C 395.780 156.800,395.600 156.091,395.600 155.224 C 395.600 154.357,395.420 153.536,395.200 153.400 C 394.980 153.264,394.800 152.353,394.800 151.376 C 394.800 150.399,394.640 149.600,394.444 149.600 C 394.248 149.600,393.978 148.970,393.844 148.200 C 393.710 147.430,393.490 146.170,393.356 145.400 C 393.222 144.630,392.952 144.000,392.756 144.000 C 392.560 144.000,392.400 143.370,392.400 142.600 C 392.400 141.830,392.243 141.200,392.052 141.200 C 391.860 141.200,391.585 140.307,391.440 139.216 C 391.295 138.125,391.002 137.125,390.788 136.993 C 390.575 136.861,390.400 136.401,390.400 135.971 C 390.400 135.541,390.232 134.877,390.027 134.495 C 389.821 134.113,389.422 132.945,389.139 131.900 C 388.857 130.855,388.485 130.000,388.313 130.000 C 388.141 130.000,388.000 129.561,388.000 129.024 C 388.000 128.487,387.820 127.936,387.600 127.800 C 387.380 127.664,387.200 127.203,387.200 126.776 C 387.200 126.349,387.020 126.000,386.800 126.000 C 386.580 126.000,386.400 125.565,386.400 125.033 C 386.400 124.502,386.222 124.007,386.003 123.933 C 385.785 123.860,385.566 123.305,385.516 122.700 C 385.466 122.095,385.285 121.600,385.113 121.600 C 384.941 121.600,384.800 121.240,384.800 120.800 C 384.800 120.360,384.620 120.000,384.400 120.000 C 384.180 120.000,384.000 119.640,384.000 119.200 C 384.000 118.760,383.820 118.400,383.600 118.400 C 383.380 118.400,383.200 118.040,383.200 117.600 C 383.200 117.160,383.020 116.800,382.800 116.800 C 382.580 116.800,382.400 116.440,382.400 116.000 C 382.400 115.560,382.220 115.200,382.000 115.200 C 381.780 115.200,381.600 114.857,381.600 114.438 C 381.600 113.761,380.134 110.521,379.592 110.000 C 379.477 109.890,378.776 108.585,378.032 107.100 C 377.289 105.615,376.527 104.400,376.340 104.400 C 376.153 104.400,376.000 104.040,376.000 103.600 C 376.000 103.160,375.820 102.800,375.600 102.800 C 375.380 102.800,375.200 102.536,375.200 102.214 C 375.200 101.401,373.924 98.800,373.526 98.800 C 373.347 98.800,373.200 98.440,373.200 98.000 C 373.200 97.560,373.020 97.200,372.800 97.200 C 372.580 97.200,372.400 96.964,372.400 96.675 C 372.400 96.387,372.085 95.802,371.700 95.375 C 371.315 94.949,370.731 94.060,370.403 93.400 C 370.074 92.740,369.489 91.909,369.103 91.553 C 368.716 91.197,368.400 90.652,368.400 90.341 C 368.400 90.031,368.040 89.517,367.600 89.200 C 367.160 88.883,366.800 88.343,366.800 88.000 C 366.800 87.657,366.440 87.117,366.000 86.800 C 365.560 86.483,365.200 85.975,365.200 85.672 C 365.200 85.369,364.660 84.617,364.000 84.000 C 363.340 83.383,362.800 82.631,362.800 82.328 C 362.800 82.025,362.440 81.517,362.000 81.200 C 361.560 80.883,361.200 80.393,361.200 80.112 C 361.200 79.831,360.480 78.859,359.600 77.952 C 358.720 77.045,358.000 76.164,358.000 75.994 C 358.000 75.824,357.460 75.107,356.800 74.400 C 356.140 73.693,355.600 72.958,355.600 72.766 C 355.600 72.574,354.610 71.427,353.400 70.217 C 352.190 69.007,351.200 67.843,351.200 67.629 C 351.200 67.416,349.230 65.297,346.821 62.921 C 341.514 57.684,342.316 58.486,337.079 53.179 C 334.703 50.770,332.584 48.800,332.371 48.800 C 332.157 48.800,330.993 47.810,329.783 46.600 C 328.573 45.390,327.426 44.400,327.234 44.400 C 327.042 44.400,326.307 43.860,325.600 43.200 C 324.893 42.540,324.176 42.000,324.006 42.000 C 323.836 42.000,322.955 41.280,322.048 40.400 C 321.141 39.520,320.169 38.800,319.888 38.800 C 319.607 38.800,319.117 38.440,318.800 38.000 C 318.483 37.560,317.975 37.200,317.672 37.200 C 317.369 37.200,316.617 36.660,316.000 36.000 C 315.383 35.340,314.631 34.800,314.328 34.800 C 314.025 34.800,313.517 34.440,313.200 34.000 C 312.883 33.560,312.343 33.200,312.000 33.200 C 311.657 33.200,311.117 32.840,310.800 32.400 C 310.483 31.960,309.969 31.600,309.659 31.600 C 309.348 31.600,308.803 31.284,308.447 30.897 C 308.091 30.511,307.260 29.926,306.600 29.597 C 305.940 29.269,305.051 28.685,304.625 28.300 C 304.198 27.915,303.613 27.600,303.325 27.600 C 303.036 27.600,302.800 27.420,302.800 27.200 C 302.800 26.980,302.440 26.800,302.000 26.800 C 301.560 26.800,301.200 26.653,301.200 26.474 C 301.200 26.076,298.599 24.800,297.786 24.800 C 297.464 24.800,297.200 24.620,297.200 24.400 C 297.200 24.180,296.840 24.000,296.400 24.000 C 295.960 24.000,295.600 23.820,295.600 23.600 C 295.600 23.380,295.240 23.200,294.800 23.200 C 294.360 23.200,294.000 23.048,294.000 22.863 C 294.000 22.677,293.145 22.095,292.100 21.568 C 291.055 21.042,290.110 20.518,290.000 20.405 C 289.471 19.862,286.236 18.400,285.562 18.400 C 285.143 18.400,284.800 18.220,284.800 18.000 C 284.800 17.780,284.440 17.600,284.000 17.600 C 283.560 17.600,283.200 17.420,283.200 17.200 C 283.200 16.980,282.840 16.800,282.400 16.800 C 281.960 16.800,281.600 16.620,281.600 16.400 C 281.600 16.180,281.240 16.000,280.800 16.000 C 280.360 16.000,280.000 15.820,280.000 15.600 C 280.000 15.380,279.550 15.200,279.000 15.200 C 278.450 15.200,278.000 15.020,278.000 14.800 C 278.000 14.580,277.550 14.400,277.000 14.400 C 276.450 14.400,276.000 14.220,276.000 14.000 C 276.000 13.780,275.645 13.600,275.212 13.600 C 274.779 13.600,273.783 13.240,273.000 12.800 C 272.217 12.360,271.221 12.000,270.788 12.000 C 270.355 12.000,270.000 11.859,270.000 11.687 C 270.000 11.515,269.145 11.140,268.100 10.854 C 267.055 10.567,265.840 10.177,265.400 9.987 C 263.420 9.129,260.656 8.400,259.386 8.400 C 258.624 8.400,258.000 8.220,258.000 8.000 C 258.000 7.780,257.550 7.600,257.000 7.600 C 256.450 7.600,256.000 7.420,256.000 7.200 C 256.000 6.980,255.280 6.800,254.400 6.800 C 253.520 6.800,252.800 6.620,252.800 6.400 C 252.800 6.180,252.260 6.000,251.600 6.000 C 250.940 6.000,250.400 5.820,250.400 5.600 C 250.400 5.380,249.500 5.200,248.400 5.200 C 247.300 5.200,246.400 5.020,246.400 4.800 C 246.400 4.580,245.680 4.400,244.800 4.400 C 243.920 4.400,243.200 4.220,243.200 4.000 C 243.200 3.780,242.390 3.600,241.400 3.600 C 240.410 3.600,239.600 3.420,239.600 3.200 C 239.600 2.980,238.700 2.800,237.600 2.800 C 236.500 2.800,235.600 2.620,235.600 2.400 C 235.600 2.178,234.533 2.000,233.200 2.000 C 231.867 2.000,230.800 1.822,230.800 1.600 C 230.800 1.367,229.478 1.200,227.633 1.200 C 225.494 1.200,224.414 1.041,224.304 0.711 C 224.103 0.109,184.811 -0.115,178.800 0.452 M223.132 67.600 C 234.735 68.798,235.766 68.943,243.200 70.432 C 275.087 76.819,296.117 94.139,301.927 118.800 C 302.959 123.181,303.164 124.533,303.641 130.061 C 304.403 138.908,302.544 153.524,300.318 156.180 C 300.143 156.389,299.995 156.839,299.990 157.180 C 299.980 157.767,298.078 161.722,295.972 165.536 C 292.149 172.459,282.165 181.964,273.248 187.172 C 271.703 188.074,270.343 188.968,270.225 189.159 C 270.107 189.350,272.123 190.866,274.705 192.529 C 301.257 209.626,310.813 227.427,310.798 259.758 C 310.783 290.586,288.176 316.337,251.600 327.189 C 243.743 329.521,238.274 330.592,224.600 332.481 C 219.556 333.177,193.465 333.174,188.400 332.477 C 181.485 331.524,176.981 330.804,172.600 329.949 C 162.751 328.028,146.695 323.575,138.100 320.380 C 136.945 319.951,134.965 319.222,133.700 318.761 C 131.038 317.790,130.315 317.505,128.400 316.674 C 127.630 316.339,126.190 315.744,125.200 315.351 C 106.306 307.854,90.269 293.641,89.715 283.902 C 89.282 276.285,93.583 274.883,108.000 277.939 C 110.723 278.517,114.013 279.238,115.800 279.649 C 116.680 279.851,118.075 280.127,118.900 280.261 L 120.400 280.505 120.400 275.460 C 120.400 262.080,122.931 241.906,126.857 224.000 C 127.749 219.930,128.635 215.880,128.826 215.000 C 129.164 213.445,132.123 201.811,132.794 199.400 C 132.978 198.740,133.508 196.801,133.972 195.090 C 134.436 193.380,135.059 191.220,135.355 190.290 C 135.652 189.361,136.295 187.250,136.785 185.600 C 141.604 169.368,148.869 151.957,155.872 139.862 C 163.739 126.274,171.938 118.815,180.132 117.791 C 186.053 117.051,187.008 119.805,186.672 136.646 C 186.386 150.964,185.838 155.513,181.965 175.700 C 181.764 176.745,181.436 178.455,181.235 179.500 C 180.906 181.219,180.551 183.031,179.610 187.800 C 178.216 194.871,176.340 203.731,173.777 215.351 C 169.405 235.175,168.978 237.597,168.622 244.600 C 168.378 249.394,167.427 263.956,166.324 279.800 C 166.049 283.760,165.818 288.792,165.812 290.981 L 165.800 294.962 168.600 295.698 C 171.489 296.456,172.365 296.652,177.800 297.754 C 181.014 298.406,182.848 298.733,188.400 299.642 C 192.341 300.287,207.432 300.278,210.600 299.629 C 217.632 298.187,218.980 297.817,223.400 296.121 C 239.936 289.776,248.916 279.865,252.866 263.600 C 253.569 260.703,253.571 241.985,252.868 237.200 C 250.707 222.496,247.690 214.831,240.899 206.800 C 237.979 203.346,238.141 203.403,233.663 204.246 C 225.625 205.758,211.464 204.940,204.000 202.532 C 189.432 197.831,187.724 182.296,201.095 176.118 C 208.472 172.709,223.839 171.506,234.925 173.468 L 238.450 174.092 239.470 173.146 C 247.969 165.258,252.364 143.178,248.455 128.000 C 243.642 109.309,226.459 100.040,196.564 100.008 C 192.584 100.004,187.814 100.179,185.964 100.399 C 164.985 102.885,156.776 105.490,133.000 117.203 C 118.043 124.571,111.021 125.943,107.983 122.090 C 103.589 116.516,122.579 94.828,140.981 84.404 C 141.761 83.962,143.075 83.212,143.900 82.737 C 152.477 77.806,163.602 73.428,174.000 70.894 C 180.948 69.201,182.979 68.834,192.000 67.645 C 195.702 67.157,218.522 67.123,223.132 67.600 " stroke="none" fill="#24548c" fill-rule="evenodd"></path></g></svg>